<svg width="63" height="14" viewBox="0 0 63 14" fill="none" xmlns="http://www.w3.org/2000/svg">
<path d="M6.024 6.424C6.024 5.544 5.936 4.83733 5.76 4.304C5.58933 3.77067 5.35733 3.36533 5.064 3.088C4.776 2.81067 4.45333 2.624 4.096 2.528C3.744 2.432 3.384 2.384 3.016 2.384H2V10.592H3.024C3.408 10.592 3.77867 10.5307 4.136 10.408C4.49333 10.2853 4.81333 10.072 5.096 9.768C5.384 9.464 5.61067 9.04267 5.776 8.504C5.94133 7.96 6.024 7.26667 6.024 6.424ZM7.976 6.424C7.976 7.336 7.87733 8.11467 7.68 8.76C7.488 9.40533 7.22133 9.94133 6.88 10.368C6.544 10.7893 6.15467 11.12 5.712 11.36C5.27467 11.5947 4.81067 11.76 4.32 11.856C3.82933 11.952 3.33867 12 2.848 12H0.144V0.959999H2.664C3.336 0.959999 3.98667 1.032 4.616 1.176C5.25067 1.32 5.81867 1.58667 6.32 1.976C6.82667 2.36533 7.22933 2.91733 7.528 3.632C7.82667 4.34667 7.976 5.27733 7.976 6.424ZM11.5058 8.352C11.5431 8.928 11.6658 9.4 11.8738 9.768C12.0818 10.1307 12.3538 10.3973 12.6898 10.568C13.0311 10.7387 13.4044 10.824 13.8098 10.824C14.2258 10.824 14.6098 10.76 14.9618 10.632C15.3138 10.504 15.6684 10.3227 16.0258 10.088L16.8018 11.16C16.4071 11.48 15.9458 11.736 15.4178 11.928C14.8898 12.12 14.3244 12.216 13.7218 12.216C12.8471 12.216 12.1058 12.0293 11.4978 11.656C10.8951 11.2827 10.4364 10.7627 10.1218 10.096C9.80708 9.42933 9.64975 8.65867 9.64975 7.784C9.64975 6.936 9.80442 6.17867 10.1138 5.512C10.4231 4.84 10.8658 4.30933 11.4418 3.92C12.0178 3.52533 12.7058 3.328 13.5058 3.328C14.2578 3.328 14.9031 3.49867 15.4418 3.84C15.9858 4.18133 16.4044 4.66667 16.6978 5.296C16.9964 5.92 17.1458 6.672 17.1458 7.552C17.1458 7.696 17.1404 7.84 17.1298 7.984C17.1244 8.12267 17.1164 8.24533 17.1058 8.352H11.5058ZM13.5218 4.656C12.9618 4.656 12.4978 4.856 12.1298 5.256C11.7671 5.656 11.5564 6.28 11.4978 7.128H15.4098C15.3938 6.33333 15.2231 5.72267 14.8978 5.296C14.5778 4.86933 14.1191 4.656 13.5218 4.656ZM25.4355 3.328C25.7555 3.328 26.0435 3.39733 26.2995 3.536C26.5555 3.67467 26.7555 3.91733 26.8995 4.264C27.0488 4.61067 27.1235 5.096 27.1235 5.72V12H25.5315V5.968C25.5315 5.52533 25.4995 5.208 25.4355 5.016C25.3768 4.824 25.2195 4.728 24.9635 4.728C24.7608 4.728 24.5555 4.792 24.3475 4.92C24.1395 5.04267 23.9288 5.256 23.7155 5.56V12H22.2675V5.968C22.2675 5.52533 22.2355 5.208 22.1715 5.016C22.1128 4.824 21.9555 4.728 21.6995 4.728C21.4915 4.728 21.2835 4.792 21.0755 4.92C20.8728 5.04267 20.6648 5.256 20.4515 5.56V12H18.8515V3.552H20.2035L20.3235 4.464C20.5635 4.128 20.8248 3.856 21.1075 3.648C21.3902 3.43467 21.7315 3.328 22.1315 3.328C22.4515 3.328 22.7422 3.408 23.0035 3.568C23.2648 3.728 23.4568 4.008 23.5795 4.408C23.8142 4.088 24.0808 3.82933 24.3795 3.632C24.6782 3.42933 25.0302 3.328 25.4355 3.328ZM32.5893 3.328C33.4159 3.328 34.1119 3.512 34.6773 3.88C35.2426 4.248 35.6693 4.76267 35.9573 5.424C36.2506 6.08533 36.3973 6.864 36.3973 7.76C36.3973 8.65067 36.2479 9.432 35.9493 10.104C35.6559 10.7707 35.2239 11.2907 34.6533 11.664C34.0879 12.032 33.3973 12.216 32.5813 12.216C31.7653 12.216 31.0719 12.0373 30.5013 11.68C29.9359 11.3173 29.5039 10.8027 29.2053 10.136C28.9119 9.46933 28.7653 8.68267 28.7653 7.776C28.7653 6.896 28.9119 6.12267 29.2053 5.456C29.5039 4.78933 29.9386 4.26933 30.5093 3.896C31.0799 3.51733 31.7733 3.328 32.5893 3.328ZM32.5893 4.72C31.9439 4.72 31.4586 4.968 31.1333 5.464C30.8079 5.95467 30.6453 6.72533 30.6453 7.776C30.6453 8.82133 30.8053 9.592 31.1253 10.088C31.4506 10.584 31.9359 10.832 32.5813 10.832C33.2266 10.832 33.7093 10.584 34.0293 10.088C34.3546 9.592 34.5173 8.816 34.5173 7.76C34.5173 6.72 34.3573 5.95467 34.0373 5.464C33.7173 4.968 33.2346 4.72 32.5893 4.72ZM52.9945 0.615999L62.1145 6.208V7.752L52.9945 13.408H51.4905V0.615999H52.9945ZM52.9945 11.592L60.5705 6.984L52.9945 2.44V11.592Z" fill="#ABB2BF"/>
</svg>
